<svg version="1.1" id="Layer_1" xmlns="http://www.w3.org/2000/svg" xmlns:xlink="http://www.w3.org/1999/xlink" x="0px" y="0px"
	 width="100%" viewBox="0 0 1152 1031" enable-background="new 0 0 1152 1031" xml:space="preserve">
<path fill="#000000" opacity="1.000000" stroke="none" 
	d="
M1.000000,356.000000 
	C1.000000,237.346848 1.000000,119.193687 1.000000,1.020264 
	C384.942596,1.020264 768.885193,1.020264 1152.913818,1.020264 
	C1152.913818,344.569977 1152.913818,688.139954 1152.913818,1031.854980 
	C769.000061,1031.854980 385.000031,1031.854980 1.000000,1031.854980 
	C1.000000,806.781250 1.000000,581.640625 1.000000,356.000000 
M234.000000,451.500000 
	C234.000000,480.330170 234.000092,509.160309 233.999969,537.990479 
	C233.999878,555.988770 234.061386,573.987549 233.906113,591.984497 
	C233.890091,593.842041 233.116348,596.400269 231.773956,597.409851 
	C227.285904,600.785278 222.530365,603.894775 217.552704,606.481567 
	C215.790115,607.397583 212.835526,607.141235 210.884857,606.323486 
	C207.559494,604.929321 204.738968,602.362000 201.449768,600.843262 
	C196.468933,598.543335 194.840469,595.239563 194.848602,589.575012 
	C195.040344,456.088104 194.999054,322.600891 194.982117,189.113724 
	C194.981827,186.881180 194.754440,184.648666 194.589127,181.608795 
	C189.969345,183.274719 186.112320,184.644165 182.270279,186.054352 
	C143.315567,200.352280 104.293816,214.633621 69.304794,237.486176 
	C50.586082,249.712021 32.698799,263.207794 14.355399,276.014618 
	C11.609551,277.931671 11.809874,279.336609 13.928306,281.493774 
	C16.479635,284.091766 18.612505,287.106750 21.208862,289.653351 
	C27.625725,295.947296 30.299561,302.918121 30.265274,312.431061 
	C29.858091,425.418732 29.982595,538.408386 30.081644,651.397461 
	C30.085377,655.657776 28.938812,658.995117 26.326357,662.294922 
	C21.118853,668.872559 16.256395,675.723389 10.953657,682.862244 
	C12.941297,684.104858 14.396984,685.129700 15.952870,685.968750 
	C25.452089,691.091431 35.010838,696.104675 44.481197,701.279846 
	C68.359352,714.328308 92.207970,727.430969 116.054962,740.536438 
	C131.760498,749.167603 147.420776,757.881226 163.141113,766.485229 
	C179.159485,775.252441 195.193542,783.992737 211.322708,792.552673 
	C212.960800,793.421997 215.713257,793.781372 217.245895,792.999634 
	C226.701782,788.176880 235.983353,783.008118 245.272156,777.862854 
	C272.699493,762.670166 300.097870,747.425049 327.522675,732.227722 
	C331.074951,730.259277 334.715881,728.450867 338.986450,726.217529 
	C338.986450,728.901306 338.986481,730.708557 338.986481,732.515808 
	C338.986481,764.679382 338.897552,796.843445 339.068909,829.006104 
	C339.099487,834.752014 338.263641,839.585449 333.906952,843.878052 
	C330.176819,847.553223 327.353607,852.145691 324.104523,856.313171 
	C320.255890,861.249573 320.183044,861.337402 325.393188,864.643982 
	C349.326569,879.833679 373.298920,894.961914 397.253998,910.117371 
	C436.194305,934.753418 475.134674,959.389465 514.069702,984.033875 
	C533.676025,996.443970 553.221497,1008.952148 572.954346,1021.157471 
	C574.731689,1022.256836 578.300293,1022.444458 580.000549,1021.387695 
	C606.761230,1004.756104 633.349243,987.846802 659.981812,971.008972 
	C695.308044,948.674744 730.650208,926.365479 765.962891,904.009644 
	C786.843018,890.790833 807.679321,877.502869 828.535217,864.245850 
	C830.267212,863.144836 831.998474,862.042542 834.083496,860.716003 
	C827.187805,853.424561 820.915955,846.566711 814.366394,839.985046 
	C811.943665,837.550415 810.922302,835.094299 810.933716,831.652588 
	C811.044495,798.322815 810.995422,764.992554 811.014221,731.662415 
	C811.015137,729.937500 811.218201,728.212708 811.381775,725.622437 
	C816.098877,728.193420 819.970154,730.365051 823.896423,732.432129 
	C837.706543,739.703247 851.570984,746.871826 865.349731,754.201660 
	C889.387756,766.988953 913.338623,779.941101 937.460999,792.566284 
	C939.389465,793.575623 942.804382,793.432556 944.775757,792.394897 
	C956.511414,786.217468 967.977295,779.530640 979.624939,773.182129 
	C999.443115,762.380005 1019.362000,751.762573 1039.178345,740.956970 
	C1067.431763,725.550720 1095.637573,710.056946 1123.848389,694.572388 
	C1130.512207,690.914734 1137.114380,687.145020 1144.396606,683.061523 
	C1140.233765,677.451355 1136.607178,671.924377 1132.328979,666.958740 
	C1126.885132,660.640137 1124.765747,653.919739 1124.794312,645.339783 
	C1125.117920,547.350220 1125.000000,449.359283 1125.000000,351.368713 
	C1125.000000,337.036743 1124.846558,322.701691 1125.137939,308.375610 
	C1125.192017,305.713379 1126.486450,302.656036 1128.157837,300.526093 
	C1133.139526,294.177673 1138.593506,288.199890 1144.095337,281.807434 
	C1142.979736,280.779297 1142.120117,279.792969 1141.081665,279.060425 
	C1131.601196,272.372864 1122.323608,265.361115 1112.540649,259.146332 
	C1088.604492,243.940689 1064.739136,228.578903 1040.236938,214.325790 
	C1025.504395,205.755798 1009.792969,198.788116 994.224731,191.757523 
	C977.755798,184.320175 960.964966,177.588211 944.225525,170.767166 
	C942.335815,169.997162 939.634094,170.020630 937.707581,170.741486 
	C927.618103,174.516708 917.657654,178.636765 907.651367,182.634521 
	C879.719299,193.794159 852.372375,206.180832 826.316528,221.292633 
	C822.522400,223.493134 818.600525,225.473557 814.000610,227.953186 
	C814.000610,208.718643 813.894409,190.571503 814.113037,172.428284 
	C814.146606,169.645676 815.170166,166.578445 816.609314,164.163269 
	C821.501038,155.954041 826.784119,147.977982 832.422180,139.120392 
	C814.920288,127.286148 797.902893,115.481873 780.585327,104.135735 
	C750.414368,84.368279 718.875916,67.061707 686.093445,51.964359 
	C654.415222,37.375576 622.009949,24.762625 588.574158,14.866834 
	C583.613464,13.398644 578.177551,12.242682 573.128174,12.716821 
	C567.637695,13.232377 562.231384,15.532011 556.979248,17.550430 
	C528.506470,28.492649 499.953461,39.245857 471.698242,50.728828 
	C443.956146,62.003262 417.439392,75.958427 392.079407,91.789398 
	C369.337158,105.986206 347.613281,121.808846 325.297821,136.700974 
	C322.058228,138.862900 321.964447,140.707413 323.795319,143.538818 
	C327.213745,148.825546 330.705811,154.071152 333.921997,159.479691 
	C335.841736,162.708023 338.648865,166.180542 338.732544,169.600174 
	C339.184906,188.085342 338.914337,206.588318 338.865417,225.085068 
	C338.864258,225.521835 338.540161,225.957733 338.085358,227.101761 
	C305.735840,206.786957 270.293701,193.985580 234.000000,180.844925 
	C234.000000,271.291779 234.000000,360.895905 234.000000,451.500000 
z"/>
<path fill="#012E62" opacity="1.000000" stroke="none" 
	d="
M234.000000,451.000000 
	C234.000000,360.895905 234.000000,271.291779 234.000000,180.844925 
	C270.293701,193.985580 305.735840,206.786957 338.085358,227.101761 
	C338.540161,225.957733 338.864258,225.521835 338.865417,225.085068 
	C338.914337,206.588318 339.184906,188.085342 338.732544,169.600174 
	C338.648865,166.180542 335.841736,162.708023 333.921997,159.479691 
	C330.705811,154.071152 327.213745,148.825546 323.795319,143.538818 
	C321.964447,140.707413 322.058228,138.862900 325.297821,136.700974 
	C347.613281,121.808846 369.337158,105.986206 392.079407,91.789398 
	C417.439392,75.958427 443.956146,62.003262 471.698242,50.728828 
	C499.953461,39.245857 528.506470,28.492649 556.979248,17.550430 
	C562.231384,15.532011 567.637695,13.232377 573.128174,12.716821 
	C578.177551,12.242682 583.613464,13.398644 588.574158,14.866834 
	C622.009949,24.762625 654.415222,37.375576 686.093445,51.964359 
	C718.875916,67.061707 750.414368,84.368279 780.585327,104.135735 
	C797.902893,115.481873 814.920288,127.286148 832.422180,139.120392 
	C826.784119,147.977982 821.501038,155.954041 816.609314,164.163269 
	C815.170166,166.578445 814.146606,169.645676 814.113037,172.428284 
	C813.894409,190.571503 814.000610,208.718643 814.000610,227.953186 
	C818.600525,225.473557 822.522400,223.493134 826.316528,221.292633 
	C852.372375,206.180832 879.719299,193.794159 907.651367,182.634521 
	C917.657654,178.636765 927.618103,174.516708 937.707581,170.741486 
	C939.634094,170.020630 942.335815,169.997162 944.225525,170.767166 
	C960.964966,177.588211 977.755798,184.320175 994.224731,191.757523 
	C1009.792969,198.788116 1025.504395,205.755798 1040.236938,214.325790 
	C1064.739136,228.578903 1088.604492,243.940689 1112.540649,259.146332 
	C1122.323608,265.361115 1131.601196,272.372864 1141.081665,279.060425 
	C1142.120117,279.792969 1142.979736,280.779297 1144.095337,281.807434 
	C1138.593506,288.199890 1133.139526,294.177673 1128.157837,300.526093 
	C1126.486450,302.656036 1125.192017,305.713379 1125.137939,308.375610 
	C1124.846558,322.701691 1125.000000,337.036743 1125.000000,351.368713 
	C1125.000000,449.359283 1125.117920,547.350220 1124.794312,645.339783 
	C1124.765747,653.919739 1126.885132,660.640137 1132.328979,666.958740 
	C1136.607178,671.924377 1140.233765,677.451355 1144.396606,683.061523 
	C1137.114380,687.145020 1130.512207,690.914734 1123.848389,694.572388 
	C1095.637573,710.056946 1067.431763,725.550720 1039.178345,740.956970 
	C1019.362000,751.762573 999.443115,762.380005 979.624939,773.182129 
	C967.977295,779.530640 956.511414,786.217468 944.775757,792.394897 
	C942.804382,793.432556 939.389465,793.575623 937.460999,792.566284 
	C913.338623,779.941101 889.387756,766.988953 865.349731,754.201660 
	C851.570984,746.871826 837.706543,739.703247 823.896423,732.432129 
	C819.970154,730.365051 816.098877,728.193420 811.381775,725.622437 
	C811.218201,728.212708 811.015137,729.937500 811.014221,731.662415 
	C810.995422,764.992554 811.044495,798.322815 810.933716,831.652588 
	C810.922302,835.094299 811.943665,837.550415 814.366394,839.985046 
	C820.915955,846.566711 827.187805,853.424561 834.083496,860.716003 
	C831.998474,862.042542 830.267212,863.144836 828.535217,864.245850 
	C807.679321,877.502869 786.843018,890.790833 765.962891,904.009644 
	C730.650208,926.365479 695.308044,948.674744 659.981812,971.008972 
	C633.349243,987.846802 606.761230,1004.756104 580.000549,1021.387695 
	C578.300293,1022.444458 574.731689,1022.256836 572.954346,1021.157471 
	C553.221497,1008.952148 533.676025,996.443970 514.069702,984.033875 
	C475.134674,959.389465 436.194305,934.753418 397.253998,910.117371 
	C373.298920,894.961914 349.326569,879.833679 325.393188,864.643982 
	C320.183044,861.337402 320.255890,861.249573 324.104523,856.313171 
	C327.353607,852.145691 330.176819,847.553223 333.906952,843.878052 
	C338.263641,839.585449 339.099487,834.752014 339.068909,829.006104 
	C338.897552,796.843445 338.986481,764.679382 338.986481,732.515808 
	C338.986481,730.708557 338.986450,728.901306 338.986450,726.217529 
	C334.715881,728.450867 331.074951,730.259277 327.522675,732.227722 
	C300.097870,747.425049 272.699493,762.670166 245.272156,777.862854 
	C235.983353,783.008118 226.701782,788.176880 217.245895,792.999634 
	C215.713257,793.781372 212.960800,793.421997 211.322708,792.552673 
	C195.193542,783.992737 179.159485,775.252441 163.141113,766.485229 
	C147.420776,757.881226 131.760498,749.167603 116.054962,740.536438 
	C92.207970,727.430969 68.359352,714.328308 44.481197,701.279846 
	C35.010838,696.104675 25.452089,691.091431 15.952870,685.968750 
	C14.396984,685.129700 12.941297,684.104858 10.953657,682.862244 
	C16.256395,675.723389 21.118853,668.872559 26.326357,662.294922 
	C28.938812,658.995117 30.085377,655.657776 30.081644,651.397461 
	C29.982595,538.408386 29.858091,425.418732 30.265274,312.431061 
	C30.299561,302.918121 27.625725,295.947296 21.208862,289.653351 
	C18.612505,287.106750 16.479635,284.091766 13.928306,281.493774 
	C11.809874,279.336609 11.609551,277.931671 14.355399,276.014618 
	C32.698799,263.207794 50.586082,249.712021 69.304794,237.486176 
	C104.293816,214.633621 143.315567,200.352280 182.270279,186.054352 
	C186.112320,184.644165 189.969345,183.274719 194.589127,181.608795 
	C194.754440,184.648666 194.981827,186.881180 194.982117,189.113724 
	C194.999054,322.600891 195.040344,456.088104 194.848602,589.575012 
	C194.840469,595.239563 196.468933,598.543335 201.449768,600.843262 
	C204.738968,602.362000 207.559494,604.929321 210.884857,606.323486 
	C212.835526,607.141235 215.790115,607.397583 217.552704,606.481567 
	C222.530365,603.894775 227.285904,600.785278 231.773956,597.409851 
	C233.116348,596.400269 233.890091,593.842041 233.906113,591.984497 
	C234.061386,573.987549 233.999878,555.988770 233.999969,537.990479 
	C234.000092,509.160309 234.000000,480.330170 234.000000,451.000000 
M252.402344,506.499725 
	C252.400085,538.495361 252.348541,570.491150 252.468216,602.486328 
	C252.480850,605.862488 251.534637,607.897827 248.571198,609.680481 
	C238.161514,615.942688 227.871277,622.410645 217.677017,629.018494 
	C215.096130,630.691467 213.284958,630.850952 210.618027,629.111389 
	C200.722504,622.656921 190.762909,616.276550 180.552658,610.341003 
	C176.672256,608.085144 175.621246,605.515076 175.625092,601.220093 
	C175.740204,472.557648 175.718704,343.895081 175.718704,215.232544 
	C175.718704,213.278961 175.718689,211.325378 175.718689,208.874176 
	C126.161850,226.250305 79.965973,248.622818 39.353123,281.693390 
	C40.611710,283.165405 41.648563,284.729645 43.014915,285.913605 
	C48.197132,290.404114 49.344303,295.934174 49.332165,302.714294 
	C49.126251,417.710266 49.085026,532.706909 49.351295,647.702637 
	C49.375732,658.257568 48.615273,667.808167 40.390518,675.345520 
	C40.065163,675.643677 39.966240,676.188965 39.620716,676.915833 
	C41.048897,677.781006 42.413040,678.681213 43.842171,679.462463 
	C99.160873,709.703308 154.510590,739.887695 209.753387,770.266479 
	C213.456680,772.302917 216.016449,772.194824 219.623169,770.187866 
	C256.109009,749.885315 292.706848,729.783936 329.275055,709.629456 
	C338.699341,704.435364 348.129974,699.252869 358.282410,693.666199 
	C358.282410,696.205200 358.282379,697.969116 358.282379,699.733093 
	C358.282379,742.898376 358.035400,786.066162 358.470367,829.227051 
	C358.568970,839.013000 357.566559,847.614136 349.929413,854.409851 
	C349.341064,854.933350 349.005707,855.741150 348.432007,856.596985 
	C349.787811,857.497131 351.010223,858.342529 352.264954,859.136902 
	C425.815247,905.704224 499.381134,952.246887 572.874634,998.903687 
	C575.866882,1000.803345 577.889221,1000.642334 580.771667,998.813538 
	C653.996155,952.355896 727.280457,905.992615 800.545959,859.599609 
	C801.738403,858.844543 802.826599,857.925049 804.952759,856.348999 
	C801.863220,853.692444 799.295532,851.307068 796.541504,849.160889 
	C792.946777,846.359558 792.004639,842.877991 792.015198,838.340271 
	C792.122314,792.175537 791.989563,746.010254 791.924438,699.845093 
	C791.921936,698.090637 791.924133,696.336182 791.924133,693.936768 
	C794.027405,695.018311 795.480591,695.744507 796.914978,696.506226 
	C843.481812,721.237366 890.059753,745.947693 936.581116,770.764221 
	C939.500549,772.321594 941.753723,772.463867 944.734009,770.828430 
	C1000.732422,740.099182 1056.791504,709.480530 1112.828125,678.820740 
	C1113.917847,678.224548 1114.889038,677.411682 1115.992554,676.646423 
	C1114.369751,674.476624 1113.151001,672.439148 1111.544312,670.776550 
	C1106.967773,666.040710 1105.949951,660.514771 1105.959839,654.015198 
	C1106.132812,539.685791 1106.180786,425.355835 1105.914185,311.026764 
	C1105.891357,301.230621 1106.776733,292.644989 1114.998291,286.270355 
	C1115.450806,285.919556 1115.614258,285.196106 1115.710083,285.019257 
	C1062.825806,244.679718 1004.528503,214.751740 943.031982,190.742020 
	C941.425781,190.114914 939.100403,190.380905 937.420166,191.031006 
	C891.888611,208.646729 847.444824,228.490082 806.493713,255.429733 
	C802.955505,257.757355 799.278687,259.874390 795.544434,262.163940 
	C795.262512,261.282318 795.087463,260.990204 795.087280,260.697998 
	C795.068237,228.865784 795.031189,197.033447 795.135437,165.201584 
	C795.141479,163.366150 796.019775,161.367966 796.980164,159.731949 
	C799.980408,154.620621 803.215027,149.646805 806.778137,143.949066 
	C789.916321,133.000092 773.620239,122.057755 756.974487,111.675995 
	C702.197632,77.512306 643.838440,51.200279 581.978271,32.715218 
	C579.434448,31.955082 576.298401,31.520870 573.864929,32.288109 
	C501.466217,55.114677 432.685822,85.665497 369.729279,128.534378 
	C362.097778,133.730881 354.543610,139.041031 346.901215,144.334778 
	C350.266113,149.689682 353.442139,154.385574 356.205566,159.312851 
	C357.359253,161.369965 358.213348,163.916580 358.223480,166.244873 
	C358.355255,196.576660 358.315796,226.909210 358.294647,257.241577 
	C358.293701,258.604218 358.056885,259.966644 357.841309,262.279663 
	C324.625702,239.467453 290.317078,220.836838 252.402390,208.123520 
	C252.402390,307.568207 252.402390,406.533966 252.402344,506.499725 
z"/>
<path fill="#FCD001" opacity="1.000000" stroke="none" 
	d="
M252.402374,505.999695 
	C252.402390,406.533966 252.402390,307.568207 252.402390,208.123520 
	C290.317078,220.836838 324.625702,239.467453 357.841309,262.279663 
	C358.056885,259.966644 358.293701,258.604218 358.294647,257.241577 
	C358.315796,226.909210 358.355255,196.576660 358.223480,166.244873 
	C358.213348,163.916580 357.359253,161.369965 356.205566,159.312851 
	C353.442139,154.385574 350.266113,149.689682 346.901215,144.334778 
	C354.543610,139.041031 362.097778,133.730881 369.729279,128.534378 
	C432.685822,85.665497 501.466217,55.114677 573.864929,32.288109 
	C576.298401,31.520870 579.434448,31.955082 581.978271,32.715218 
	C643.838440,51.200279 702.197632,77.512306 756.974487,111.675995 
	C773.620239,122.057755 789.916321,133.000092 806.778137,143.949066 
	C803.215027,149.646805 799.980408,154.620621 796.980164,159.731949 
	C796.019775,161.367966 795.141479,163.366150 795.135437,165.201584 
	C795.031189,197.033447 795.068237,228.865784 795.087280,260.697998 
	C795.087463,260.990204 795.262512,261.282318 795.544434,262.163940 
	C799.278687,259.874390 802.955505,257.757355 806.493713,255.429733 
	C847.444824,228.490082 891.888611,208.646729 937.420166,191.031006 
	C939.100403,190.380905 941.425781,190.114914 943.031982,190.742020 
	C1004.528503,214.751740 1062.825806,244.679718 1115.710083,285.019257 
	C1115.614258,285.196106 1115.450806,285.919556 1114.998291,286.270355 
	C1106.776733,292.644989 1105.891357,301.230621 1105.914185,311.026764 
	C1106.180786,425.355835 1106.132812,539.685791 1105.959839,654.015198 
	C1105.949951,660.514771 1106.967773,666.040710 1111.544312,670.776550 
	C1113.151001,672.439148 1114.369751,674.476624 1115.992554,676.646423 
	C1114.889038,677.411682 1113.917847,678.224548 1112.828125,678.820740 
	C1056.791504,709.480530 1000.732422,740.099182 944.734009,770.828430 
	C941.753723,772.463867 939.500549,772.321594 936.581116,770.764221 
	C890.059753,745.947693 843.481812,721.237366 796.914978,696.506226 
	C795.480591,695.744507 794.027405,695.018311 791.924133,693.936768 
	C791.924133,696.336182 791.921936,698.090637 791.924438,699.845093 
	C791.989563,746.010254 792.122314,792.175537 792.015198,838.340271 
	C792.004639,842.877991 792.946777,846.359558 796.541504,849.160889 
	C799.295532,851.307068 801.863220,853.692444 804.952759,856.348999 
	C802.826599,857.925049 801.738403,858.844543 800.545959,859.599609 
	C727.280457,905.992615 653.996155,952.355896 580.771667,998.813538 
	C577.889221,1000.642334 575.866882,1000.803345 572.874634,998.903687 
	C499.381134,952.246887 425.815247,905.704224 352.264954,859.136902 
	C351.010223,858.342529 349.787811,857.497131 348.432007,856.596985 
	C349.005707,855.741150 349.341064,854.933350 349.929413,854.409851 
	C357.566559,847.614136 358.568970,839.013000 358.470367,829.227051 
	C358.035400,786.066162 358.282379,742.898376 358.282379,699.733093 
	C358.282379,697.969116 358.282410,696.205200 358.282410,693.666199 
	C348.129974,699.252869 338.699341,704.435364 329.275055,709.629456 
	C292.706848,729.783936 256.109009,749.885315 219.623169,770.187866 
	C216.016449,772.194824 213.456680,772.302917 209.753387,770.266479 
	C154.510590,739.887695 99.160873,709.703308 43.842171,679.462463 
	C42.413040,678.681213 41.048897,677.781006 39.620716,676.915833 
	C39.966240,676.188965 40.065163,675.643677 40.390518,675.345520 
	C48.615273,667.808167 49.375732,658.257568 49.351295,647.702637 
	C49.085026,532.706909 49.126251,417.710266 49.332165,302.714294 
	C49.344303,295.934174 48.197132,290.404114 43.014915,285.913605 
	C41.648563,284.729645 40.611710,283.165405 39.353123,281.693390 
	C79.965973,248.622818 126.161850,226.250305 175.718689,208.874176 
	C175.718689,211.325378 175.718704,213.278961 175.718704,215.232544 
	C175.718704,343.895081 175.740204,472.557648 175.625092,601.220093 
	C175.621246,605.515076 176.672256,608.085144 180.552658,610.341003 
	C190.762909,616.276550 200.722504,622.656921 210.618027,629.111389 
	C213.284958,630.850952 215.096130,630.691467 217.677017,629.018494 
	C227.871277,622.410645 238.161514,615.942688 248.571198,609.680481 
	C251.534637,607.897827 252.480850,605.862488 252.468216,602.486328 
	C252.348541,570.491150 252.400085,538.495361 252.402374,505.999695 
M623.442505,171.107269 
	C641.906189,181.341995 660.327454,191.654556 678.870056,201.744278 
	C682.479248,203.708206 683.327698,206.248230 683.319336,210.115097 
	C683.204712,263.113770 683.242065,316.112762 683.242065,369.111694 
	C683.242065,371.026428 683.242065,372.941132 683.242065,375.203400 
	C714.543518,365.605072 745.150635,356.219666 775.732483,346.842041 
	C775.818298,346.452393 775.951782,346.129242 775.951843,345.806061 
	C775.970032,282.640808 775.998413,219.475494 775.874939,156.310471 
	C775.871826,154.733932 774.568176,152.616211 773.223938,151.679169 
	C767.082581,147.398178 760.772278,143.348572 754.410400,139.396683 
	C714.787659,114.783958 674.438660,91.572670 629.987793,76.544762 
	C615.187988,71.541245 600.249573,66.939575 585.310242,62.363926 
	C582.212219,61.415051 579.890076,59.031239 575.656311,60.141838 
	C506.156525,78.372925 442.267487,108.375534 383.967926,150.369019 
	C380.909332,152.572128 379.836914,154.787842 379.838440,158.517715 
	C379.932831,388.013000 379.932465,617.508362 379.838654,847.003601 
	C379.837189,850.602783 380.881256,852.598816 383.957245,854.523438 
	C446.885010,893.897217 509.750763,933.370422 572.552246,972.945312 
	C575.667969,974.908691 577.780823,974.994385 580.923340,972.988708 
	C643.081299,933.319397 705.309265,893.759766 767.578186,854.264832 
	C770.111389,852.658081 771.186523,851.030029 771.186157,847.955322 
	C771.179382,794.123169 771.272461,740.290955 771.447693,686.459045 
	C771.457825,683.330200 770.578369,681.877380 767.491272,680.739746 
	C741.131897,671.025513 714.858643,661.077759 688.552124,651.220032 
	C687.069031,650.664368 685.519531,650.285828 683.319275,649.617920 
	C683.319275,652.247131 683.320129,654.206909 683.319214,656.166626 
	C683.295410,705.832275 683.255920,755.497925 683.285767,805.163574 
	C683.287537,808.152161 682.951721,810.295959 679.871399,812.037231 
	C646.704163,830.786560 613.622314,849.687378 580.590393,868.674377 
	C577.771606,870.294617 575.727661,870.272888 572.918274,868.658020 
	C540.320435,849.919495 507.675049,831.262634 474.941803,812.761902 
	C471.327820,810.719299 469.980774,808.555725 469.983643,804.280334 
	C470.113922,608.784424 470.199249,413.288177 469.810974,217.792953 
	C469.790344,207.406616 472.956879,201.804352 481.589020,196.565521 
	C511.064972,178.676575 542.745605,165.816895 574.874023,153.862732 
	C576.626770,153.210571 579.138794,153.665192 580.997925,154.381607 
	C594.951782,159.758514 608.830322,165.330765 623.442505,171.107269 
M1083.923706,462.500031 
	C1083.923584,406.838837 1083.895752,351.177582 1083.996216,295.516571 
	C1084.001953,292.356415 1083.200439,290.276398 1080.562988,288.459991 
	C1074.257202,284.117126 1068.254028,279.333557 1061.929443,275.019928 
	C1024.973999,249.815063 983.833191,232.996780 942.849792,215.890320 
	C941.536926,215.342346 939.595703,215.513870 938.209839,216.040543 
	C889.825806,234.428802 843.674011,257.134094 801.185120,286.941345 
	C798.550964,288.789307 797.577942,290.669312 797.596924,293.856476 
	C797.732971,316.686798 797.669617,339.518250 797.669617,362.349365 
	C797.669617,462.672882 797.674377,562.996399 797.647034,663.319946 
	C797.646240,666.376221 797.652954,668.726868 801.135925,670.601501 
	C846.538147,695.039795 891.834045,719.675903 937.098206,744.369446 
	C939.752869,745.817688 941.685425,745.846130 944.349548,744.393311 
	C989.326721,719.867554 1034.347778,695.421936 1079.425903,671.082153 
	C1082.722046,669.302429 1084.044556,667.427124 1084.035278,663.480286 
	C1083.879272,596.820496 1083.923584,530.160217 1083.923706,462.500031 
M154.737457,440.500183 
	C154.737457,375.255035 154.737457,310.009888 154.737457,244.256744 
	C153.126923,244.700867 152.179611,244.878616 151.294479,245.218353 
	C124.986786,255.316208 99.449646,266.890289 76.267326,283.220856 
	C72.657288,285.763916 71.496498,288.289124 71.500267,292.539612 
	C71.609467,415.856110 71.588554,539.172729 71.588654,662.489380 
	C71.588654,663.489258 71.285988,664.623474 71.655647,665.460388 
	C72.375473,667.090332 73.098030,669.237915 74.467300,669.986938 
	C120.138046,694.971863 165.870361,719.844543 211.683716,744.566833 
	C213.310471,745.444702 216.257858,745.383545 217.905960,744.493713 
	C263.128418,720.075500 308.239746,695.451599 353.454041,671.018250 
	C356.874298,669.169983 357.939514,667.114685 357.925568,663.292725 
	C357.782501,624.131958 357.861389,584.970398 357.865570,545.809021 
	C357.874420,462.653625 357.844635,379.498169 357.975861,296.342987 
	C357.982147,292.368866 356.799805,289.977142 353.495636,287.880066 
	C345.347809,282.708832 337.715332,276.663116 329.324585,271.950043 
	C311.697174,262.048767 293.715820,252.777542 274.787872,242.664291 
	C274.787872,246.262497 274.788208,248.199524 274.787842,250.136566 
	C274.764771,372.286652 274.725494,494.436768 274.791962,616.586792 
	C274.794067,620.464417 273.886353,622.834045 270.265900,624.872620 
	C252.871490,634.666931 235.633820,644.742676 218.441696,654.889954 
	C215.648163,656.538696 213.604935,656.493958 210.832047,654.857056 
	C193.640793,644.708557 176.400284,634.638550 159.015106,624.827759 
	C155.586014,622.892700 154.648026,620.725037 154.655533,616.976257 
	C154.772552,558.484436 154.737457,499.992279 154.737457,440.500183 
M491.782898,341.499878 
	C491.782898,357.663574 491.782928,373.827301 491.782928,389.990997 
	C491.782928,523.631042 491.803833,657.271057 491.683167,790.911011 
	C491.679504,794.974121 492.956909,797.052612 496.500092,798.874451 
	C521.934509,811.952271 547.295410,825.174683 572.587097,838.526611 
	C575.776611,840.210388 578.121033,840.089783 581.236450,838.361511 
	C606.833313,824.161316 632.499756,810.084900 658.248657,796.162476 
	C661.456177,794.428223 662.674927,792.592224 662.664551,788.892944 
	C662.530457,741.236145 662.657654,693.578552 662.473328,645.922058 
	C662.449768,639.829224 660.950500,633.750977 660.322693,627.646606 
	C660.113342,625.611206 659.838257,623.149292 660.746704,621.529114 
	C662.295105,618.767944 664.963806,619.473938 667.708740,620.450500 
	C696.207947,630.590393 724.751953,640.604431 753.287354,650.642456 
	C760.753418,653.268799 768.232849,655.857422 776.207642,658.638245 
	C776.207642,562.666565 776.207642,467.349915 776.207642,371.558075 
	C773.966736,372.282684 772.252014,372.795929 770.565247,373.388641 
	C736.070251,385.509277 701.564941,397.600861 667.111633,409.838776 
	C664.328613,410.827301 662.048218,410.670563 660.611755,408.381470 
	C659.778748,407.054016 659.910095,404.905914 660.109070,403.185181 
	C660.813904,397.089600 662.441101,391.021515 662.463074,384.938507 
	C662.655090,331.616516 662.609741,278.293396 662.441956,224.971237 
	C662.435669,222.969437 660.976379,220.182587 659.319092,219.094208 
	C634.754822,202.962631 608.769531,189.607071 580.872620,180.200226 
	C578.438904,179.379578 575.293030,179.368195 572.832825,180.128860 
	C545.505371,188.578140 520.002502,200.993378 495.659668,215.935669 
	C492.720642,217.739716 491.696442,219.625458 491.706787,223.023499 
	C491.826111,262.182007 491.782898,301.341003 491.782898,341.499878 
z"/>
<path fill="#012D62" opacity="1.000000" stroke="none" 
	d="
M623.087463,170.974579 
	C608.830322,165.330765 594.951782,159.758514 580.997925,154.381607 
	C579.138794,153.665192 576.626770,153.210571 574.874023,153.862732 
	C542.745605,165.816895 511.064972,178.676575 481.589020,196.565521 
	C472.956879,201.804352 469.790344,207.406616 469.810974,217.792953 
	C470.199249,413.288177 470.113922,608.784424 469.983643,804.280334 
	C469.980774,808.555725 471.327820,810.719299 474.941803,812.761902 
	C507.675049,831.262634 540.320435,849.919495 572.918274,868.658020 
	C575.727661,870.272888 577.771606,870.294617 580.590393,868.674377 
	C613.622314,849.687378 646.704163,830.786560 679.871399,812.037231 
	C682.951721,810.295959 683.287537,808.152161 683.285767,805.163574 
	C683.255920,755.497925 683.295410,705.832275 683.319214,656.166626 
	C683.320129,654.206909 683.319275,652.247131 683.319275,649.617920 
	C685.519531,650.285828 687.069031,650.664368 688.552124,651.220032 
	C714.858643,661.077759 741.131897,671.025513 767.491272,680.739746 
	C770.578369,681.877380 771.457825,683.330200 771.447693,686.459045 
	C771.272461,740.290955 771.179382,794.123169 771.186157,847.955322 
	C771.186523,851.030029 770.111389,852.658081 767.578186,854.264832 
	C705.309265,893.759766 643.081299,933.319397 580.923340,972.988708 
	C577.780823,974.994385 575.667969,974.908691 572.552246,972.945312 
	C509.750763,933.370422 446.885010,893.897217 383.957245,854.523438 
	C380.881256,852.598816 379.837189,850.602783 379.838654,847.003601 
	C379.932465,617.508362 379.932831,388.013000 379.838440,158.517715 
	C379.836914,154.787842 380.909332,152.572128 383.967926,150.369019 
	C442.267487,108.375534 506.156525,78.372925 575.656311,60.141838 
	C579.890076,59.031239 582.212219,61.415051 585.310242,62.363926 
	C600.249573,66.939575 615.187988,71.541245 629.987793,76.544762 
	C674.438660,91.572670 714.787659,114.783958 754.410400,139.396683 
	C760.772278,143.348572 767.082581,147.398178 773.223938,151.679169 
	C774.568176,152.616211 775.871826,154.733932 775.874939,156.310471 
	C775.998413,219.475494 775.970032,282.640808 775.951843,345.806061 
	C775.951782,346.129242 775.818298,346.452393 775.732483,346.842041 
	C745.150635,356.219666 714.543518,365.605072 683.242065,375.203400 
	C683.242065,372.941132 683.242065,371.026428 683.242065,369.111694 
	C683.242065,316.112762 683.204712,263.113770 683.319336,210.115097 
	C683.327698,206.248230 682.479248,203.708206 678.870056,201.744278 
	C660.327454,191.654556 641.906189,181.341995 623.087463,170.974579 
z"/>
<path fill="#012D62" opacity="1.000000" stroke="none" 
	d="
M1083.923706,463.000061 
	C1083.923584,530.160217 1083.879272,596.820496 1084.035278,663.480286 
	C1084.044556,667.427124 1082.722046,669.302429 1079.425903,671.082153 
	C1034.347778,695.421936 989.326721,719.867554 944.349548,744.393311 
	C941.685425,745.846130 939.752869,745.817688 937.098206,744.369446 
	C891.834045,719.675903 846.538147,695.039795 801.135925,670.601501 
	C797.652954,668.726868 797.646240,666.376221 797.647034,663.319946 
	C797.674377,562.996399 797.669617,462.672882 797.669617,362.349365 
	C797.669617,339.518250 797.732971,316.686798 797.596924,293.856476 
	C797.577942,290.669312 798.550964,288.789307 801.185120,286.941345 
	C843.674011,257.134094 889.825806,234.428802 938.209839,216.040543 
	C939.595703,215.513870 941.536926,215.342346 942.849792,215.890320 
	C983.833191,232.996780 1024.973999,249.815063 1061.929443,275.019928 
	C1068.254028,279.333557 1074.257202,284.117126 1080.562988,288.459991 
	C1083.200439,290.276398 1084.001953,292.356415 1083.996216,295.516571 
	C1083.895752,351.177582 1083.923584,406.838837 1083.923706,463.000061 
M967.968506,313.548431 
	C960.051880,310.081909 952.203125,306.443634 944.171570,303.267700 
	C942.123108,302.457733 939.255737,302.448975 937.170715,303.199768 
	C918.478882,309.930389 900.847473,318.832977 884.137390,329.595490 
	C881.806396,331.096832 880.734009,332.581238 880.736511,335.487885 
	C880.819275,429.811493 880.819702,524.135132 880.735474,618.458740 
	C880.732849,621.398254 881.791870,622.854858 884.231567,624.252136 
	C901.844604,634.340698 919.409546,644.515198 936.887756,654.835083 
	C939.661499,656.472778 941.693054,656.533081 944.495239,654.878784 
	C961.830444,644.644775 979.228455,634.513123 996.745789,624.595154 
	C999.979431,622.764343 1000.927917,620.718689 1000.919800,617.137024 
	C1000.803406,565.642517 1000.840149,514.147766 1000.840149,462.653046 
	C1000.840149,420.657349 1000.822510,378.661621 1000.877441,336.666016 
	C1000.881348,333.680756 1000.643921,331.411865 997.481384,329.755493 
	C987.762573,324.665314 978.239624,319.201263 967.968506,313.548431 
z"/>
<path fill="#012E62" opacity="1.000000" stroke="none" 
	d="
M154.737457,441.000183 
	C154.737457,499.992279 154.772552,558.484436 154.655533,616.976257 
	C154.648026,620.725037 155.586014,622.892700 159.015106,624.827759 
	C176.400284,634.638550 193.640793,644.708557 210.832047,654.857056 
	C213.604935,656.493958 215.648163,656.538696 218.441696,654.889954 
	C235.633820,644.742676 252.871490,634.666931 270.265900,624.872620 
	C273.886353,622.834045 274.794067,620.464417 274.791962,616.586792 
	C274.725494,494.436768 274.764771,372.286652 274.787842,250.136566 
	C274.788208,248.199524 274.787872,246.262497 274.787872,242.664291 
	C293.715820,252.777542 311.697174,262.048767 329.324585,271.950043 
	C337.715332,276.663116 345.347809,282.708832 353.495636,287.880066 
	C356.799805,289.977142 357.982147,292.368866 357.975861,296.342987 
	C357.844635,379.498169 357.874420,462.653625 357.865570,545.809021 
	C357.861389,584.970398 357.782501,624.131958 357.925568,663.292725 
	C357.939514,667.114685 356.874298,669.169983 353.454041,671.018250 
	C308.239746,695.451599 263.128418,720.075500 217.905960,744.493713 
	C216.257858,745.383545 213.310471,745.444702 211.683716,744.566833 
	C165.870361,719.844543 120.138046,694.971863 74.467300,669.986938 
	C73.098030,669.237915 72.375473,667.090332 71.655647,665.460388 
	C71.285988,664.623474 71.588654,663.489258 71.588654,662.489380 
	C71.588554,539.172729 71.609467,415.856110 71.500267,292.539612 
	C71.496498,288.289124 72.657288,285.763916 76.267326,283.220856 
	C99.449646,266.890289 124.986786,255.316208 151.294479,245.218353 
	C152.179611,244.878616 153.126923,244.700867 154.737457,244.256744 
	C154.737457,310.009888 154.737457,375.255035 154.737457,441.000183 
z"/>
<path fill="#032F61" opacity="1.000000" stroke="none" 
	d="
M491.782898,340.999878 
	C491.782898,301.341003 491.826111,262.182007 491.706787,223.023499 
	C491.696442,219.625458 492.720642,217.739716 495.659668,215.935669 
	C520.002502,200.993378 545.505371,188.578140 572.832825,180.128860 
	C575.293030,179.368195 578.438904,179.379578 580.872620,180.200226 
	C608.769531,189.607071 634.754822,202.962631 659.319092,219.094208 
	C660.976379,220.182587 662.435669,222.969437 662.441956,224.971237 
	C662.609741,278.293396 662.655090,331.616516 662.463074,384.938507 
	C662.441101,391.021515 660.813904,397.089600 660.109070,403.185181 
	C659.910095,404.905914 659.778748,407.054016 660.611755,408.381470 
	C662.048218,410.670563 664.328613,410.827301 667.111633,409.838776 
	C701.564941,397.600861 736.070251,385.509277 770.565247,373.388641 
	C772.252014,372.795929 773.966736,372.282684 776.207642,371.558075 
	C776.207642,467.349915 776.207642,562.666565 776.207642,658.638245 
	C768.232849,655.857422 760.753418,653.268799 753.287354,650.642456 
	C724.751953,640.604431 696.207947,630.590393 667.708740,620.450500 
	C664.963806,619.473938 662.295105,618.767944 660.746704,621.529114 
	C659.838257,623.149292 660.113342,625.611206 660.322693,627.646606 
	C660.950500,633.750977 662.449768,639.829224 662.473328,645.922058 
	C662.657654,693.578552 662.530457,741.236145 662.664551,788.892944 
	C662.674927,792.592224 661.456177,794.428223 658.248657,796.162476 
	C632.499756,810.084900 606.833313,824.161316 581.236450,838.361511 
	C578.121033,840.089783 575.776611,840.210388 572.587097,838.526611 
	C547.295410,825.174683 521.934509,811.952271 496.500092,798.874451 
	C492.956909,797.052612 491.679504,794.974121 491.683167,790.911011 
	C491.803833,657.271057 491.782928,523.631042 491.782928,389.990997 
	C491.782928,373.827301 491.782898,357.663574 491.782898,340.999878 
M511.002350,319.500000 
	C511.002350,471.806702 511.002350,624.113403 511.002441,776.420105 
	C511.002441,777.919861 510.595459,779.576782 511.098328,780.883362 
	C511.899475,782.964600 512.830139,785.684998 514.535706,786.617432 
	C525.464905,792.592102 536.629517,798.135315 547.698975,803.854858 
	C556.401245,808.351318 565.012634,813.032166 573.823364,817.303162 
	C575.503357,818.117493 578.327698,818.146423 579.944580,817.275818 
	C599.079834,806.972839 617.957092,796.183533 637.210693,786.112122 
	C642.460999,783.365723 644.163818,780.310120 644.127502,774.547913 
	C643.882935,735.722900 643.917847,696.895447 644.045532,658.069275 
	C644.088989,644.864929 644.327576,631.763672 636.248962,620.221436 
	C635.607910,619.305603 636.156189,616.495361 637.103699,615.700989 
	C643.448303,610.381897 650.097290,605.428040 656.546875,600.230774 
	C659.018494,598.239075 661.401001,598.034180 664.322144,599.147217 
	C670.676086,601.568237 677.115662,603.767090 683.539124,606.002441 
	C704.841614,613.415649 726.155762,620.795349 747.456726,628.212891 
	C750.762817,629.364075 754.023499,630.645813 757.722351,632.022461 
	C757.722351,553.581909 757.722351,476.153687 757.722351,398.377747 
	C756.136230,398.712982 754.825989,398.842163 753.619629,399.266541 
	C724.046448,409.670197 694.450989,420.012756 664.958618,430.641266 
	C660.856506,432.119629 658.121399,431.197540 655.112000,428.657837 
	C649.794617,424.170227 644.582153,419.461823 638.785767,415.671631 
	C634.859436,413.104156 634.955322,410.786591 637.179932,407.646637 
	C642.403687,400.273285 643.961304,391.871033 643.971985,383.122253 
	C644.030701,334.964081 643.903931,286.805389 644.137024,238.648285 
	C644.162537,233.374054 642.309692,230.518875 638.024475,227.940491 
	C620.626770,217.472519 602.546082,208.468689 583.547974,201.290314 
	C579.251953,199.667084 575.323181,199.227158 570.665833,200.822906 
	C551.434692,207.412140 533.206604,216.054535 515.613647,226.156662 
	C512.264771,228.079636 510.870361,230.445541 510.898987,234.515472 
	C511.096100,262.509155 511.002472,290.504913 511.002350,319.500000 
z"/>
<path fill="#FDD101" opacity="1.000000" stroke="none" 
	d="
M968.304504,313.715485 
	C978.239624,319.201263 987.762573,324.665314 997.481384,329.755493 
	C1000.643921,331.411865 1000.881348,333.680756 1000.877441,336.666016 
	C1000.822510,378.661621 1000.840149,420.657349 1000.840149,462.653046 
	C1000.840149,514.147766 1000.803406,565.642517 1000.919800,617.137024 
	C1000.927917,620.718689 999.979431,622.764343 996.745789,624.595154 
	C979.228455,634.513123 961.830444,644.644775 944.495239,654.878784 
	C941.693054,656.533081 939.661499,656.472778 936.887756,654.835083 
	C919.409546,644.515198 901.844604,634.340698 884.231567,624.252136 
	C881.791870,622.854858 880.732849,621.398254 880.735474,618.458740 
	C880.819702,524.135132 880.819275,429.811493 880.736511,335.487885 
	C880.734009,332.581238 881.806396,331.096832 884.137390,329.595490 
	C900.847473,318.832977 918.478882,309.930389 937.170715,303.199768 
	C939.255737,302.448975 942.123108,302.457733 944.171570,303.267700 
	C952.203125,306.443634 960.051880,310.081909 968.304504,313.715485 
M978.668640,435.500244 
	C978.668518,406.849060 978.603333,378.197540 978.755798,349.547150 
	C978.773682,346.204529 977.753540,344.533661 974.767151,343.131439 
	C964.537537,338.328217 954.511597,333.088562 944.247498,328.363892 
	C942.344177,327.487701 939.350281,327.476196 937.449341,328.349335 
	C927.032410,333.133789 916.835205,338.394318 906.477234,343.311462 
	C903.921875,344.524597 902.854919,345.891266 902.858276,348.895721 
	C902.953552,435.182495 902.947510,521.469421 902.877319,607.756287 
	C902.875183,610.445190 903.636047,611.857544 906.119568,613.075439 
	C916.565063,618.197876 926.806458,623.741455 937.310913,628.734558 
	C939.290649,629.675659 942.503845,629.596069 944.509277,628.643372 
	C954.564026,623.866699 964.341187,618.508240 974.360718,613.653198 
	C977.670166,612.049500 978.766174,610.097107 978.757812,606.408691 
	C978.630005,549.772766 978.668640,493.136475 978.668640,435.500244 
z"/>
<path fill="#000000" opacity="1.000000" stroke="none" 
	d="
M511.002380,319.000000 
	C511.002472,290.504913 511.096100,262.509155 510.898987,234.515472 
	C510.870361,230.445541 512.264771,228.079636 515.613647,226.156662 
	C533.206604,216.054535 551.434692,207.412140 570.665833,200.822906 
	C575.323181,199.227158 579.251953,199.667084 583.547974,201.290314 
	C602.546082,208.468689 620.626770,217.472519 638.024475,227.940491 
	C642.309692,230.518875 644.162537,233.374054 644.137024,238.648285 
	C643.903931,286.805389 644.030701,334.964081 643.971985,383.122253 
	C643.961304,391.871033 642.403687,400.273285 637.179932,407.646637 
	C634.955322,410.786591 634.859436,413.104156 638.785767,415.671631 
	C644.582153,419.461823 649.794617,424.170227 655.112000,428.657837 
	C658.121399,431.197540 660.856506,432.119629 664.958618,430.641266 
	C694.450989,420.012756 724.046448,409.670197 753.619629,399.266541 
	C754.825989,398.842163 756.136230,398.712982 757.722351,398.377747 
	C757.722351,476.153687 757.722351,553.581909 757.722351,632.022461 
	C754.023499,630.645813 750.762817,629.364075 747.456726,628.212891 
	C726.155762,620.795349 704.841614,613.415649 683.539124,606.002441 
	C677.115662,603.767090 670.676086,601.568237 664.322144,599.147217 
	C661.401001,598.034180 659.018494,598.239075 656.546875,600.230774 
	C650.097290,605.428040 643.448303,610.381897 637.103699,615.700989 
	C636.156189,616.495361 635.607910,619.305603 636.248962,620.221436 
	C644.327576,631.763672 644.088989,644.864929 644.045532,658.069275 
	C643.917847,696.895447 643.882935,735.722900 644.127502,774.547913 
	C644.163818,780.310120 642.460999,783.365723 637.210693,786.112122 
	C617.957092,796.183533 599.079834,806.972839 579.944580,817.275818 
	C578.327698,818.146423 575.503357,818.117493 573.823364,817.303162 
	C565.012634,813.032166 556.401245,808.351318 547.698975,803.854858 
	C536.629517,798.135315 525.464905,792.592102 514.535706,786.617432 
	C512.830139,785.684998 511.899475,782.964600 511.098328,780.883362 
	C510.595459,779.576782 511.002441,777.919861 511.002441,776.420105 
	C511.002350,624.113403 511.002350,471.806702 511.002380,319.000000 
z"/>
<path fill="#032F61" opacity="1.000000" stroke="none" 
	d="
M978.668640,436.000244 
	C978.668640,493.136475 978.630005,549.772766 978.757812,606.408691 
	C978.766174,610.097107 977.670166,612.049500 974.360718,613.653198 
	C964.341187,618.508240 954.564026,623.866699 944.509277,628.643372 
	C942.503845,629.596069 939.290649,629.675659 937.310913,628.734558 
	C926.806458,623.741455 916.565063,618.197876 906.119568,613.075439 
	C903.636047,611.857544 902.875183,610.445190 902.877319,607.756287 
	C902.947510,521.469421 902.953552,435.182495 902.858276,348.895721 
	C902.854919,345.891266 903.921875,344.524597 906.477234,343.311462 
	C916.835205,338.394318 927.032410,333.133789 937.449341,328.349335 
	C939.350281,327.476196 942.344177,327.487701 944.247498,328.363892 
	C954.511597,333.088562 964.537537,338.328217 974.767151,343.131439 
	C977.753540,344.533661 978.773682,346.204529 978.755798,349.547150 
	C978.603333,378.197540 978.668518,406.849060 978.668640,436.000244 
M922.001160,453.500000 
	C922.001404,500.469788 922.042664,547.439697 921.927551,594.409180 
	C921.917847,598.374573 923.377258,600.241211 926.661926,602.580566 
	C936.405945,609.520325 945.206665,608.670593 954.799500,602.317078 
	C958.408020,599.927124 960.117004,598.058594 960.108093,593.568787 
	C959.955444,516.785156 959.954651,440.001038 960.105957,363.217407 
	C960.115173,358.548096 958.719299,356.037445 954.473206,354.107941 
	C940.532349,347.772858 940.672913,347.789246 926.777771,354.491272 
	C922.998169,356.314270 921.903564,358.566833 921.922913,362.558228 
	C922.067383,392.538269 922.001343,422.519287 922.001160,453.500000 
z"/>
<path fill="#000000" opacity="1.000000" stroke="none" 
	d="
M922.001160,453.000000 
	C922.001343,422.519287 922.067383,392.538269 921.922913,362.558228 
	C921.903564,358.566833 922.998169,356.314270 926.777771,354.491272 
	C940.672913,347.789246 940.532349,347.772858 954.473206,354.107941 
	C958.719299,356.037445 960.115173,358.548096 960.105957,363.217407 
	C959.954651,440.001038 959.955444,516.785156 960.108093,593.568787 
	C960.117004,598.058594 958.408020,599.927124 954.799500,602.317078 
	C945.206665,608.670593 936.405945,609.520325 926.661926,602.580566 
	C923.377258,600.241211 921.917847,598.374573 921.927551,594.409180 
	C922.042664,547.439697 922.001404,500.469788 922.001160,453.000000 
z"/>
</svg>